<?xml version="1.0" encoding="UTF-8"?>
<svg id="Layer_1" xmlns="http://www.w3.org/2000/svg" version="1.1" viewBox="0 0 402.21 92.75">
  <!-- Generator: Adobe Illustrator 29.0.0, SVG Export Plug-In . SVG Version: 2.1.0 Build 186)  -->
  <defs>
    <style>
      .st0 {
        fill: #05045d;
      }

      .st1 {
        fill: #1f17cb;
      }

      .st2 {
        fill: #fff;
      }
    </style>
  </defs>
  <g>
    <path class="st0" d="M131.28,25.63h6.59v45.4h-6.59V25.63Z"/>
    <path class="st0" d="M145.65,25.63h6.79l21.81,27.34-1.38.39v-27.74h6.59v45.4h-6.59v-13.7l1.52,5.47-23.59-28.99,1.45-.2v37.42h-6.59V25.63Z"/>
    <path class="st0" d="M197.63,32.15h-13.71v-6.52h34v6.52h-13.64v38.94h-6.65v-38.94Z"/>
    <path class="st0" d="M226.95,69.38c-1.8-1.1-3.23-2.59-4.28-4.48-1.05-1.89-1.58-3.93-1.58-6.13v-20.89c0-2.2.53-4.24,1.58-6.13,1.05-1.89,2.48-3.38,4.28-4.48,1.8-1.1,3.8-1.65,6-1.65h18.32v6.52h-18.32c-1.45,0-2.69.56-3.72,1.68-1.03,1.12-1.55,2.47-1.55,4.05v6.85h19.44v6.26h-19.44v7.77c0,1.58.52,2.92,1.55,4.02,1.03,1.1,2.27,1.65,3.72,1.65h18.32v6.59h-18.32c-2.2,0-4.2-.55-6-1.65Z"/>
    <path class="st0" d="M257.65,25.69h22.2c2.15,0,4.13.53,5.93,1.58,1.8,1.05,3.24,2.49,4.32,4.32,1.08,1.82,1.61,3.88,1.61,6.16v1.19c0,1.8-.43,3.48-1.29,5.04-.86,1.56-2.19,2.84-3.99,3.85,1.76,1.01,3.07,2.32,3.95,3.92s1.32,3.33,1.32,5.17v14.1h-6.66v-14.1c0-1.58-.5-2.96-1.51-4.15-1.01-1.19-2.24-1.78-3.69-1.78h-15.62v20.03h-6.59V25.69ZM283.55,43.09c1.01-1.1,1.51-2.42,1.51-3.95v-1.19c0-1.58-.52-2.93-1.55-4.05-1.03-1.12-2.25-1.68-3.66-1.68h-15.62v12.52h15.62c1.45,0,2.68-.55,3.69-1.65Z"/>
    <path class="st0" d="M304.33,69.38c-1.82-1.1-3.25-2.58-4.28-4.45-1.03-1.87-1.55-3.92-1.55-6.16V25.69h6.59v33.08c0,1.01.24,1.96.72,2.83.48.88,1.13,1.57,1.94,2.08.81.51,1.72.76,2.73.76h14.3v6.59h-14.43c-2.2,0-4.21-.55-6.03-1.65Z"/>
    <path class="st0" d="M333.42,69.44c-1.8-1.1-3.23-2.58-4.28-4.45-1.05-1.87-1.58-3.92-1.58-6.16v-20.95c0-2.28.53-4.36,1.58-6.23,1.05-1.87,2.48-3.34,4.28-4.42,1.8-1.08,3.78-1.61,5.93-1.61h10.34c2.11,0,4.06.54,5.86,1.61,1.8,1.08,3.24,2.57,4.32,4.48,1.08,1.91,1.61,3.99,1.61,6.23v20.89c0,2.24-.54,4.31-1.61,6.19-1.08,1.89-2.52,3.37-4.32,4.45-1.8,1.08-3.75,1.61-5.86,1.61h-10.34c-2.15,0-4.13-.55-5.93-1.65ZM353.39,62.85c1.01-1.1,1.52-2.44,1.52-4.02v-20.95c0-1.01-.24-1.95-.72-2.83-.48-.88-1.12-1.58-1.91-2.11-.79-.53-1.65-.79-2.57-.79h-10.34c-1.45,0-2.68.56-3.69,1.68-1.01,1.12-1.52,2.47-1.52,4.05v20.95c0,1.01.24,1.96.72,2.83s1.11,1.57,1.88,2.08,1.64.76,2.6.76h10.34c1.45,0,2.68-.55,3.69-1.65Z"/>
    <path class="st0" d="M374.17,69.57c-1.82-1.1-3.25-2.59-4.28-4.48-1.03-1.89-1.55-3.93-1.55-6.13v-21.08c0-2.24.53-4.29,1.58-6.16,1.05-1.87,2.48-3.35,4.28-4.45,1.8-1.1,3.78-1.65,5.93-1.65h18.32v6.52h-18.32c-1.45,0-2.68.56-3.69,1.68-1.01,1.12-1.52,2.47-1.52,4.05v21.08c0,1.01.24,1.96.72,2.83.48.88,1.11,1.57,1.88,2.08s1.64.76,2.6.76h10.34c1.45,0,2.67-.55,3.66-1.65.99-1.1,1.48-2.44,1.48-4.02v-7.97h-12.19v-6.26h18.78v14.23c0,2.2-.53,4.24-1.58,6.13-1.05,1.89-2.47,3.38-4.25,4.48-1.78,1.1-3.75,1.65-5.9,1.65h-10.34c-2.15,0-4.14-.55-5.96-1.65Z"/>
  </g>
  <path class="st1" d="M82.24,0H20.19C9,0,0,9,0,20.19v52.24c0,11.18,9,20.32,20.19,20.32h62.06c11.18,0,20.32-9.14,20.32-20.32V20.19C102.57,9,93.43,0,82.24,0ZM46.51,63.83c-1.23,1.09-2.59,1.91-4.09,2.59-.41.27-.82.55-1.36.68-.55.27-.95.41-1.5.68-.41.14-.68.14-1.09.27-.55.14-.95.27-1.5.41-.41.14-.95.14-1.5.27-.41,0-.82,0-1.23.14h-3.96c-.55-.14-.95-.14-1.5-.14-.55-.14-.95-.27-1.5-.41-.41,0-.82-.14-1.23-.27-.41-.14-.68-.14-.95-.27-.55-.14-1.09-.41-1.64-.68-.55-.14-.95-.41-1.36-.68-1.5-.68-2.86-1.5-4.23-2.59-.55-.55-1.09-.95-1.64-1.5-4.23-4.23-6.68-9.96-6.68-16.09s2.46-11.59,6.68-15.96c8.86-8.73,23.19-8.73,32.05,0l-4.23,4.23c-6.55-6.55-17.05-6.55-23.6,0-3.14,3.14-4.91,7.36-4.91,11.73s1.77,8.73,4.91,11.87c1.64,1.5,3.41,2.73,5.46,3.55.95.55,1.91.82,3,.95,1.09.27,2.18.41,3.27.41,1.23,0,2.32-.14,3.27-.41,1.09-.14,2.18-.41,3.14-.95,2.05-.82,3.82-2.05,5.46-3.55l13.91-13.91,4.09,4.23-13.78,13.91c-.55.55-1.09.95-1.77,1.5ZM86.2,62.33c-.41.55-1.09.95-1.64,1.5-3.96,3.27-9,5.05-14.32,5.05s-10.23-1.77-14.32-5.05c-.55-.55-1.09-.95-1.64-1.5l4.23-4.23c.82.82,1.64,1.5,2.45,2.05.95.68,1.91,1.09,2.86,1.5,1.09.55,2.05.82,3.14.95,1.09.27,2.18.41,3.27.41s2.18-.14,3.27-.41c1.09-.14,2.18-.41,3.14-.95.95-.41,1.91-.82,2.86-1.5.95-.55,1.77-1.23,2.45-2.05,3.14-3.14,4.91-7.36,4.91-11.87s-1.77-8.59-4.91-11.73c-6.41-6.55-17.05-6.55-23.46,0l-13.91,13.91-4.23-4.23,13.91-13.91c8.87-8.73,23.19-8.73,31.92,0,4.36,4.36,6.68,9.96,6.68,15.96s-2.32,11.87-6.68,16.09Z"/>
  <path class="st2" d="M62.06,48.42l-13.78,13.91c-.55.55-1.09.95-1.77,1.5-1.23,1.09-2.59,1.91-4.09,2.59-.41.27-.82.55-1.36.68-.55.27-.95.41-1.5.68-.41.14-.68.14-1.09.27-.55.14-.95.27-1.5.41-.41.14-.95.14-1.5.27-.41,0-.82,0-1.23.14h-3.96c-.55-.14-.95-.14-1.5-.14-.55-.14-.95-.27-1.5-.41-.41,0-.82-.14-1.23-.27-.41-.14-.68-.14-.95-.27-.55-.14-1.09-.41-1.64-.68-.55-.14-.95-.41-1.36-.68-1.5-.68-2.86-1.5-4.23-2.59-.55-.55-1.09-.95-1.64-1.5-4.23-4.23-6.68-9.96-6.68-16.09s2.46-11.59,6.68-15.96c8.86-8.73,23.19-8.73,32.05,0l-4.23,4.23c-6.55-6.55-17.05-6.55-23.6,0-3.14,3.14-4.91,7.36-4.91,11.73s1.77,8.73,4.91,11.87c1.64,1.5,3.41,2.73,5.46,3.55.95.55,1.91.82,3,.95,1.09.27,2.18.41,3.27.41,1.23,0,2.32-.14,3.27-.41,1.09-.14,2.18-.41,3.14-.95,2.05-.82,3.82-2.05,5.46-3.55l13.91-13.91,4.09,4.23Z"/>
  <path class="st2" d="M92.88,46.24c0,6.14-2.32,11.87-6.68,16.09-.41.55-1.09.95-1.64,1.5-3.96,3.27-9,5.05-14.32,5.05s-10.23-1.77-14.32-5.05c-.55-.55-1.09-.95-1.64-1.5l4.23-4.23c.82.82,1.64,1.5,2.45,2.05.95.68,1.91,1.09,2.86,1.5,1.09.55,2.05.82,3.14.95,1.09.27,2.18.41,3.27.41s2.18-.14,3.27-.41c1.09-.14,2.18-.41,3.14-.95.95-.41,1.91-.82,2.86-1.5.95-.55,1.77-1.23,2.45-2.05,3.14-3.14,4.91-7.36,4.91-11.87s-1.77-8.59-4.91-11.73c-6.41-6.55-17.05-6.55-23.46,0l-13.91,13.91-4.23-4.23,13.91-13.91c8.87-8.73,23.19-8.73,31.92,0,4.36,4.36,6.68,9.96,6.68,15.96Z"/>
</svg>